<svg xmlns="http://www.w3.org/2000/svg" width="597" height="72" fill="none" viewBox="0 0 597 72">
  <g clip-path="url(#a)">
    <path fill="#0ACF83" d="M.044 57.333c0-5.89 4.776-10.666 10.667-10.666h10.667v10.666C21.378 63.224 16.602 68 10.71 68S.044 63.224.044 57.333Z"/>
    <path fill="#1ABCFE" d="M21.377 36c0-5.891 4.776-10.667 10.667-10.667S42.711 30.11 42.711 36s-4.776 10.667-10.667 10.667c-5.89 0-10.667-4.776-10.667-10.667Z"/>
    <path fill="#A259FF" d="M.044 36c0 5.891 4.776 10.667 10.667 10.667h10.667V25.333H10.71C4.82 25.333.044 30.11.044 36Z"/>
    <path fill="#FF7262" d="M21.377 4v21.333h10.667c5.891 0 10.667-4.775 10.667-10.666S37.935 4 32.044 4H21.377Z"/>
    <path fill="#F24E1E" d="M.044 14.667c0 5.89 4.776 10.666 10.667 10.666h10.667V4H10.71C4.82 4 .044 8.776.044 14.667Z"/>
  </g>
  <g clip-path="url(#b)">
    <path fill="#E34F26" d="M72.454 63.094 67 2h60l-5.455 61.094L96.933 70"/>
    <path fill="#EF652A" d="m97.067 64.688 19.822-5.446 4.656-52.328H97.067"/>
    <path fill="#EBEBEB" d="M97.067 29.625h-9.978l-.665-7.703h10.642v-7.438H78.175l.133 1.993 1.863 20.718h16.895v-7.57Zm0 19.523h-.133l-8.382-2.257-.532-5.977h-7.451l.932 11.82 15.432 4.25h.133v-7.836Z"/>
    <path fill="#fff" d="M96.933 29.625v7.57h9.313l-.931 9.696-8.382 2.257v7.836l15.433-4.25.133-1.328 1.729-19.789.266-1.992H96.933Zm0-15.14v7.436h18.227l.133-1.594.399-3.851.133-1.993H96.933Z"/>
  </g>
  <g clip-path="url(#c)">
    <path fill="#CF649A" d="M225.894 41.344a16.558 16.558 0 0 0-7.885 2.027c-.816-1.783-1.632-3.34-1.768-4.503-.153-1.351-.339-2.177-.153-3.79.187-1.614 1.037-3.903 1.037-4.09-.017-.17-.187-.995-1.937-1.014-1.751-.018-3.263.376-3.433.882-.17.507-.51 1.67-.731 2.87-.306 1.765-3.5 8.013-5.319 11.296-.594-1.276-1.104-2.402-1.206-3.302-.153-1.351-.34-2.177-.153-3.79.187-1.614 1.036-3.903 1.036-4.09-.017-.17-.187-.995-1.937-1.014-1.75-.018-3.263.376-3.433.882-.17.507-.356 1.708-.73 2.87-.357 1.164-4.606 11.596-5.71 14.316a60.883 60.883 0 0 1-1.411 3.246c-.357.75-.017.057-.051.132-.306.638-.475.994-.475.994v.019c-.238.469-.493.92-.612.92-.085 0-.255-1.258.034-2.984.629-3.621 2.158-9.269 2.141-9.475 0-.094.289-1.088-.986-1.595-1.24-.506-1.682.338-1.784.338-.102 0-.187.3-.187.3s1.377-6.36-2.634-6.36c-2.515 0-5.982 3.02-7.698 5.779-1.088.656-3.399 2.045-5.846 3.527-.935.563-1.903 1.163-2.821 1.707l-.187-.225c-4.86-5.722-13.85-9.775-13.476-17.468.136-2.795 1.02-10.169 17.266-19.1 13.306-7.317 23.961-5.31 25.813-.844 2.634 6.38-5.693 18.237-19.526 19.944-5.268.657-8.038-1.594-8.734-2.439-.731-.881-.833-.92-1.105-.75-.442.262-.17 1.05 0 1.52.408 1.182 2.107 3.283 4.996 4.334 2.532.919 8.718 1.425 16.195-1.764 8.378-3.584 14.921-13.528 13-21.84-1.954-8.461-14.665-11.238-26.68-6.529-7.154 2.815-14.903 7.205-20.477 12.965-6.628 6.83-7.681 12.796-7.239 15.273 1.546 8.837 12.575 14.597 16.993 18.856-.221.131-.425.262-.611.375-2.21 1.2-10.622 6.06-12.729 11.201-2.379 5.816.374 10 2.209 10.563 5.676 1.745 11.488-1.388 14.632-6.548 3.127-5.16 2.753-11.858 1.309-14.916l-.051-.112 1.733-1.126a100.244 100.244 0 0 1 3.195-1.989c-.544 1.632-.935 3.565-1.139 6.38-.238 3.301.986 7.58 2.6 9.268.714.732 1.564.75 2.09.75 1.87 0 2.719-1.707 3.654-3.752 1.156-2.496 2.175-5.385 2.175-5.385s-1.274 7.824 2.209 7.824c1.275 0 2.549-1.82 3.127-2.758v.019s.034-.057.102-.188c.136-.225.204-.357.204-.357v-.037c.51-.976 1.648-3.208 3.348-6.905 2.192-4.765 4.299-10.732 4.299-10.732s.204 1.464.833 3.865c.374 1.426 1.19 2.984 1.818 4.503-.51.788-.815 1.239-.815 1.239l.017.018c-.408.6-.867 1.239-1.343 1.877-1.733 2.289-3.806 4.897-4.078 5.647-.323.882-.255 1.539.373 2.064.459.375 1.275.45 2.142.375 1.563-.112 2.651-.544 3.194-.807.85-.337 1.819-.844 2.753-1.594 1.7-1.389 2.736-3.359 2.634-5.986-.05-1.444-.475-2.87-1.002-4.221.153-.244.306-.488.459-.75 2.685-4.335 4.758-9.1 4.758-9.1s.204 1.463.833 3.865c.322 1.22.968 2.551 1.546 3.865-2.515 2.27-4.095 4.897-4.639 6.623-1.003 3.19-.221 4.634 1.257 4.972.663.15 1.615-.188 2.328-.525a10.198 10.198 0 0 0 2.94-1.67c1.7-1.389 3.331-3.321 3.246-5.93-.051-1.2-.34-2.382-.731-3.508 2.142-.975 4.912-1.538 8.429-1.07 7.562.977 9.058 6.193 8.769 8.369-.289 2.176-1.869 3.377-2.396 3.752-.527.357-.697.488-.646.75.068.395.306.376.765.301.629-.113 3.976-1.782 4.112-5.798.204-5.16-4.231-10.788-12.099-10.732Zm-58.322 21.708c-2.499 3.021-6.016 4.166-7.512 3.19-1.614-1.032-.985-5.479 2.091-8.687 1.869-1.951 4.299-3.752 5.896-4.86.357-.243.901-.6 1.547-1.031.102-.075.17-.113.17-.113.119-.075.255-.169.391-.263 1.138 4.578.05 8.594-2.583 11.764Zm18.268-13.715c-.867 2.345-2.702 8.368-3.807 8.03-.952-.281-1.529-4.84-.187-9.343.68-2.27 2.124-4.972 2.974-6.023 1.377-1.688 2.872-2.251 3.246-1.557.442.9-1.683 7.43-2.226 8.893Zm15.073 7.955c-.374.207-.714.357-.867.244-.119-.075.153-.356.153-.356s1.887-2.233 2.634-3.265c.425-.6.935-1.294 1.479-2.082v.225c0 2.702-2.345 4.503-3.399 5.234Zm11.624-2.927c-.272-.225-.238-.919.68-3.095.356-.863 1.172-2.308 2.583-3.678.169.563.271 1.107.255 1.614-.018 3.377-2.193 4.634-3.518 5.16Z"/>
  </g>
  <path fill="#8ED6FB" d="M324.923 55.492 295.743 72V59.146l18.182-10.005 10.998 6.351Zm1.999-1.808V19.167l-10.673 6.169v22.189l10.673 6.16Zm-62.923 1.808L293.18 72V59.146L274.988 49.14l-10.989 6.351ZM262 53.684V19.167l10.674 6.169v22.189L262 53.685Zm1.253-36.755L293.18 0v12.424l-19.177 10.55-.153.085-10.597-6.13Zm62.416 0L295.743 0v12.424l19.176 10.54.153.086 10.597-6.121Z"/>
  <path fill="#1C78C0" d="m293.18 56.219-17.943-9.87v-19.54l17.943 10.358v19.052Zm2.563 0 17.942-9.86v-19.55l-17.942 10.358v19.052Zm-19.291-31.667 18.009-9.9 18.01 9.9-18.01 10.396-18.009-10.396Z"/>
  <g clip-path="url(#d)">
    <path fill="#F7DF1E" d="M418.922 2h-68v68h68V2Z"/>
    <path fill="#000" d="M396.601 55.125c1.37 2.237 3.152 3.88 6.304 3.88 2.647 0 4.339-1.323 4.339-3.151 0-2.191-1.738-2.967-4.652-4.242l-1.598-.686c-4.611-1.964-7.674-4.425-7.674-9.628 0-4.792 3.651-8.44 9.358-8.44 4.063 0 6.983 1.414 9.088 5.116l-4.976 3.195c-1.095-1.964-2.277-2.738-4.112-2.738-1.872 0-3.058 1.187-3.058 2.738 0 1.917 1.187 2.693 3.929 3.88l1.597.685c5.43 2.328 8.495 4.701 8.495 10.038 0 5.753-4.519 8.905-10.589 8.905-5.934 0-9.768-2.828-11.644-6.535l5.193-3.017Zm-22.573.554c1.004 1.78 1.917 3.287 4.113 3.287 2.099 0 3.423-.822 3.423-4.016V33.223h6.39v21.814c0 6.616-3.879 9.628-9.541 9.628-5.116 0-8.079-2.648-9.586-5.837l5.201-3.15Z"/>
  </g>
  <g clip-path="url(#e)">
    <path fill="#3B7DA1" d="M480.237 42.411c3.674 0 6.652-2.87 6.652-6.411 0-3.54-2.978-6.411-6.652-6.411-3.673 0-6.652 2.87-6.652 6.411 0 3.54 2.979 6.411 6.652 6.411Z"/>
    <path fill="#3B7DA1" d="M514.308 36c0-1.17-.64-2.49-2.248-3.89-1.604-1.395-4.02-2.725-7.144-3.875-6.238-2.296-14.963-3.748-24.679-3.748s-18.441 1.452-24.678 3.748c-3.125 1.15-5.54 2.48-7.144 3.876-1.609 1.399-2.248 2.718-2.248 3.89 0 1.17.64 2.489 2.248 3.888 1.604 1.396 4.019 2.727 7.144 3.877 6.237 2.295 14.962 3.747 24.678 3.747 9.716 0 18.441-1.452 24.679-3.747 3.125-1.15 5.54-2.481 7.144-3.877 1.608-1.4 2.248-2.718 2.248-3.889Zm3.244 0c0 2.457-1.358 4.593-3.362 6.337-2.008 1.747-4.82 3.247-8.153 4.474-6.681 2.459-15.804 3.947-25.8 3.947s-19.118-1.489-25.799-3.947c-3.334-1.227-6.145-2.727-8.153-4.474-2.004-1.744-3.363-3.88-3.363-6.337 0-2.456 1.358-4.593 3.363-6.337 2.008-1.747 4.819-3.246 8.153-4.473 6.681-2.459 15.803-3.948 25.799-3.948 9.996 0 19.119 1.489 25.8 3.948 3.333 1.227 6.145 2.726 8.153 4.473 2.004 1.744 3.362 3.88 3.362 6.337Z"/>
    <path fill="#3B7DA1" d="M461.602 4.788c2.153-1.198 4.705-1.145 7.268-.345 2.567.8 5.32 2.396 8.094 4.569 5.556 4.353 11.463 11.231 16.468 19.587 5.004 8.354 8.236 16.73 9.371 23.558.566 3.409.626 6.523.057 9.09-.572 2.575-1.821 4.759-3.987 5.964-2.153 1.199-4.705 1.146-7.268.347-2.567-.8-5.32-2.396-8.094-4.57-5.557-4.352-11.463-11.23-16.468-19.586-5.004-8.355-8.236-16.73-9.371-23.559-.566-3.408-.626-6.523-.057-9.09.572-2.574 1.82-4.76 3.987-5.965Zm6.302 2.752c-2.067-.644-3.619-.53-4.724.084-1.093.608-1.95 1.82-2.397 3.831-.448 2.02-.437 4.684.09 7.856 1.053 6.331 4.102 14.323 8.954 22.424 4.852 8.098 10.511 14.647 15.685 18.7 2.591 2.03 4.995 3.382 7.058 4.025 2.067.645 3.62.531 4.725-.084 1.093-.608 1.95-1.82 2.397-3.832.448-2.02.437-4.683-.09-7.854-1.053-6.332-4.102-14.324-8.954-22.424-4.852-8.099-10.511-14.647-15.685-18.7-2.591-2.03-4.995-3.382-7.059-4.026Z"/>
    <path fill="#3B7DA1" d="M491.605 4.443c2.563-.8 5.114-.853 7.267.345 2.167 1.206 3.416 3.39 3.988 5.965.569 2.567.509 5.682-.057 9.09-1.135 6.83-4.367 15.204-9.371 23.559-5.005 8.355-10.911 15.234-16.468 19.587-2.774 2.173-5.527 3.769-8.094 4.569-2.563.8-5.115.852-7.268-.347-2.166-1.205-3.415-3.39-3.987-5.963-.569-2.568-.509-5.682.057-9.09 1.135-6.83 4.367-15.205 9.371-23.559 5.005-8.355 10.912-15.234 16.468-19.587 2.774-2.173 5.527-3.769 8.094-4.57Zm5.69 3.181c-1.105-.615-2.657-.728-4.724-.084-2.064.644-4.468 1.996-7.059 4.026-5.174 4.053-10.833 10.601-15.685 18.7-4.852 8.1-7.901 16.093-8.954 22.424-.527 3.171-.538 5.835-.09 7.854.447 2.013 1.304 3.224 2.397 3.832 1.105.615 2.657.729 4.725.084 2.063-.643 4.467-1.995 7.058-4.025 5.174-4.053 10.833-10.602 15.685-18.7 4.852-8.1 7.901-16.093 8.954-22.424.527-3.171.538-5.836.09-7.855-.447-2.012-1.304-3.223-2.397-3.832Z"/>
  </g>
  <g clip-path="url(#f)">
    <path fill="#FF4785" d="M596.03 6.168c.004.069.006.138.006.207v59.25c0 1.83-1.498 3.313-3.346 3.313-.05 0-.1-.002-.15-.004l-44.667-1.985c-1.74-.078-3.129-1.463-3.194-3.185L542.617 9.39c-.068-1.795 1.323-3.317 3.135-3.43l36.629-2.265-.319 7.466a.501.501 0 0 0 .055.246l.047.073c.166.217.479.26.699.095l2.93-2.2 2.475 1.93a.5.5 0 0 0 .807-.406l-.277-7.602 3.683-.227c1.845-.114 3.433 1.273 3.549 3.099Z"/>
    <mask id="g" width="55" height="66" x="542" y="3" maskUnits="userSpaceOnUse" style="mask-type:luminance">
      <path fill="#fff" d="M544.679 63.764 542.617 9.39c-.068-1.795 1.323-3.317 3.135-3.43l46.729-2.89c1.845-.114 3.433 1.273 3.549 3.099.004.069.006.138.006.207v59.25c0 1.83-1.498 3.313-3.346 3.313-.05 0-.1-.002-.15-.004l-44.667-1.985c-1.74-.078-3.129-1.463-3.194-3.185Z"/>
    </mask>
    <g mask="url(#g)">
      <path fill="#fff" d="M573.855 27.892c0 1.288 8.77.67 9.947-.234 0-8.775-4.757-13.386-13.468-13.386s-13.592 4.682-13.592 11.707c0 12.233 16.681 12.468 16.681 19.14 0 1.874-.927 2.986-2.966 2.986-2.656 0-3.706-1.343-3.583-5.909 0-.99-10.132-1.299-10.441 0-.787 11.065 6.178 14.256 14.148 14.256 7.723 0 13.777-4.074 13.777-11.45 0-13.111-16.928-12.76-16.928-19.257 0-2.635 1.977-2.986 3.151-2.986 1.236 0 3.46.216 3.274 5.133Z"/>
    </g>
    <mask id="h" width="55" height="66" x="542" y="3" maskUnits="userSpaceOnUse" style="mask-type:luminance">
      <path fill="#fff" d="M544.679 63.764 542.617 9.39c-.068-1.795 1.323-3.317 3.135-3.43l46.729-2.89c1.845-.114 3.433 1.273 3.549 3.099.004.069.006.138.006.207v59.25c0 1.83-1.498 3.313-3.346 3.313-.05 0-.1-.002-.15-.004l-44.667-1.985c-1.74-.078-3.129-1.463-3.194-3.185Z"/>
    </mask>
    <g mask="url(#h)">
      <path fill="#fff" d="m582.063 11.16.319-7.469 6.417-.397.276 7.604a.5.5 0 0 1-.807.405l-2.475-1.929-2.93 2.2a.502.502 0 0 1-.699-.095.485.485 0 0 1-.101-.32Z"/>
    </g>
  </g>
  <defs>
    <clipPath id="a">
      <path fill="#fff" d="M0 4h43v64H0z"/>
    </clipPath>
    <clipPath id="b">
      <path fill="#fff" d="M67 2h60v68H67z"/>
    </clipPath>
    <clipPath id="c">
      <path fill="#fff" d="M151 0h87v72h-87z"/>
    </clipPath>
    <clipPath id="d">
      <path fill="#fff" d="M350.922 2h68v68h-68z"/>
    </clipPath>
    <clipPath id="e">
      <path fill="#fff" d="M442.922 3.862h74.63v64.276h-74.63z"/>
    </clipPath>
    <clipPath id="f">
      <path fill="#fff" d="M541.552 2h55.25v68h-55.25z"/>
    </clipPath>
  </defs>
</svg>
